<svg width="28" height="20" viewBox="0 0 28 20" fill="none" xmlns="http://www.w3.org/2000/svg">
<g clip-path="url(#clip0_24_33)">
<path d="M28 0H0V20H28V0Z" fill="#009B3A"/>
<path d="M25.4821 10L14 17.4488L2.51794 10L14 2.55127L25.4821 10Z" fill="#FEDF00"/>
<path d="M18.8382 9.92915C18.8382 10.0917 18.83 10.25 18.8135 10.4083C18.776 10.8083 18.6896 11.1917 18.5623 11.5542C17.9035 13.4375 16.1247 14.7875 14.0329 14.7875C11.3812 14.7875 9.23175 12.6121 9.23175 9.92915C9.23175 9.57498 9.26881 9.22915 9.34293 8.89582C9.42528 8.49998 9.55704 8.12498 9.72999 7.77498C10.5123 6.17082 12.147 5.06665 14.0329 5.06665C16.6888 5.06665 18.8382 7.24165 18.8382 9.92915Z" fill="#002776"/>
<path d="M18.8135 10.4083C18.7761 10.8083 18.6896 11.1917 18.5624 11.5542C14.2924 7.75835 9.43354 8.87918 9.38413 8.89126C9.37178 8.89543 9.35531 8.89543 9.34296 8.89543C9.42531 8.4996 9.55707 8.1246 9.73001 7.7746C11.1918 7.57085 15.12 7.39168 18.8135 10.4083Z" fill="white"/>
</g>
<defs>
<clipPath id="clip0_24_33">
<rect width="28" height="20" fill="white"/>
</clipPath>
</defs>
</svg>
