<svg width="137" height="53" viewBox="0 0 137 53" fill="none" xmlns="http://www.w3.org/2000/svg">
<g clip-path="url(#clip0_60_47)">
<path d="M92.5298 43.4143C92.5298 43.4143 93.5031 42.1155 93.7465 41.8063C96.6057 38.4668 100.256 37.3536 104.514 38.1575C107.13 38.6523 108.773 41.2497 108.225 44.1564C107.434 48.1762 105.183 50.8973 101.412 52.1961C99.0391 53 96.5449 53.1855 94.1723 52.0105C92.8948 51.3921 92.0431 50.4026 91.7389 48.9183C91.6781 48.7328 91.6781 48.4854 91.4347 48.3617C90.9481 48.5473 90.6439 48.9802 90.3397 49.3512C88.8188 50.8355 87.1155 51.9487 84.9862 52.2579C83.1004 52.5053 81.2145 52.6908 79.3286 52.0724C78.1119 51.7013 77.2602 50.9592 76.7127 49.7841C76.6519 49.5986 76.591 49.4131 76.3477 49.2276C75.9219 49.846 75.4352 50.4644 74.8268 50.9592C72.8801 52.3816 70.6901 52.7526 68.3783 52.7526C67.2225 52.7526 66.0666 52.6908 64.9107 52.3816C63.4507 52.0105 62.4165 51.3302 62.0515 49.7223C62.0515 49.5986 61.9298 49.4749 61.869 49.2894C61.139 49.9697 60.5306 50.5881 59.8006 51.1447C58.1581 52.2579 56.4547 53 54.4472 53C53.4738 53 52.5004 53 51.5879 53C50.4321 53 49.3979 52.5671 48.4853 51.9487C47.512 51.2684 47.0861 50.2789 46.9036 49.1657C46.8428 48.9802 46.9036 48.7328 46.782 48.5473C46.782 48.5473 46.7211 48.5473 46.5995 48.4854C45.9911 49.7842 45.3219 52.8145 45.3219 52.8145L39.8468 52.8763C39.8468 52.8763 40.0901 52.0724 40.2118 51.7013C40.881 49.2894 41.611 46.8775 42.2194 44.4038C42.4019 43.7853 42.5844 43.0432 41.976 42.5484C41.3068 41.9919 40.5768 41.93 39.786 42.3011C39.056 42.6103 38.5693 43.105 38.2043 43.7853C37.3526 45.3314 37.0484 47.063 36.5617 48.7328C36.2575 49.7842 35.8925 50.8355 35.71 51.9487C35.6492 52.1961 35.5275 52.8145 35.5275 52.8145L30.3566 52.8763C30.3566 52.8763 30.9041 50.4644 30.9649 49.1657C29.079 51.021 26.889 52.3197 24.3339 52.6908C21.7789 53.0619 19.2846 52.8145 17.3379 50.7118L16.4254 52.8763C16.4254 52.8763 10.1594 52.8145 7.54352 52.8145C5.4143 52.8145 3.40675 52.2579 1.88588 50.65C0.85169 49.5368 0.365011 48.1762 0.121672 46.692C-0.608346 41.4971 0.973359 37.0444 4.38011 33.2101C5.59681 31.7877 6.93517 30.4889 8.63855 29.6231C10.6461 28.6336 12.8361 28.2007 15.0262 28.1389C17.7029 28.077 23.2389 28.1389 23.2389 28.1389L22.1439 33.1482C22.1439 33.1482 21.4139 33.1482 21.0488 33.1482C19.3455 33.1482 17.5813 33.1482 15.8779 33.1482C14.2353 33.1482 12.8361 33.643 11.6195 34.6943C9.36856 36.6733 7.72602 39.0852 7.48268 42.2392C7.42185 43.4761 7.48268 44.713 8.15187 45.8262C8.57771 46.5064 9.12522 46.9393 9.85524 47.1249C11.9236 47.6196 16.3646 47.4959 16.3646 47.4959C16.3646 47.4959 16.3646 46.6301 16.4254 46.2591C17.2163 41.8063 21.2314 38.5905 24.9423 38.2812C26.2806 38.1575 27.619 38.0957 28.9574 38.3431C30.4782 38.6523 31.6341 39.8273 32.1816 40.5694C32.7291 41.3116 33.0333 41.93 33.0941 43.1669L34.1283 37.972H38.8734L38.3868 40.6931C38.3868 40.6931 39.2385 39.8892 39.5426 39.6418C40.6985 38.5904 42.0369 37.9102 43.6186 37.7246C44.7136 37.601 45.8086 37.6628 46.782 38.2812C47.6945 38.8378 48.1203 39.6418 48.0595 40.755C48.0595 41.2497 47.877 43.3524 47.877 43.3524C47.877 43.3524 48.1203 42.7958 48.7287 41.7445C51.1621 38.4049 54.5688 37.4773 58.4623 37.8483C59.6181 37.972 60.774 38.2194 61.7473 38.8997C62.7207 39.58 63.5115 40.3839 63.7549 41.6208C63.8157 41.8682 64.0591 43.105 64.0591 43.105C64.0591 43.105 64.4849 41.8682 64.6066 41.6208C65.2149 40.0129 66.4925 39.0852 67.9525 38.4668C70.4467 37.5391 73.0018 37.6628 75.5568 38.0339C76.956 38.2812 78.0511 39.5181 78.2336 40.9405C78.2336 41.126 78.2336 41.2497 78.1119 41.4353C76.591 41.4971 75.0702 41.9918 73.4276 41.8063C73.1843 41.7445 73.1843 41.4971 73.0626 41.3116C73.0018 41.2497 73.0018 41.1879 72.9409 41.126C72.2109 40.1365 69.7167 40.3839 69.23 41.4971C68.9867 41.9918 69.1692 42.4866 69.8384 42.6721C70.5684 42.9195 71.2984 43.105 72.0284 43.1669C73.6101 43.3524 75.131 43.5998 76.4694 44.5893C76.5302 44.6511 76.591 44.5893 76.7127 44.6511C77.0777 44.3419 77.1994 43.8472 77.3819 43.4761C79.2678 39.7655 82.3703 38.0957 86.3854 37.9102C87.6021 37.8483 88.8188 38.0339 89.9747 38.4049C91.6172 38.8997 92.5906 40.1984 92.7123 41.93C92.5906 42.3011 92.5298 43.4143 92.5298 43.4143ZM87.9063 43.7235C87.9063 43.7235 87.7846 43.1669 87.7846 42.9195C87.5413 41.1879 86.2029 40.3839 84.6821 41.126C82.9179 41.93 81.9445 43.4143 81.3362 45.2077C81.032 46.1354 80.9711 47.063 81.2145 47.9907C81.397 48.7947 82.0053 49.4131 82.6745 49.4749C83.4654 49.5368 84.6212 49.5368 85.2904 49.2276C85.9596 48.9802 86.9938 48.1762 86.9938 48.1762C86.9938 48.1762 89.6705 48.2381 90.2789 48.1762C90.7047 48.1762 91.4956 48.1144 91.4956 48.1144C91.4956 48.1144 91.1914 46.1354 92.3473 43.7235C90.8264 43.5998 87.9063 43.7235 87.9063 43.7235ZM53.8388 49.1657C54.508 49.2276 55.238 48.9802 55.7855 48.4236C57.3064 47.063 57.9756 45.2696 57.9147 43.2287C57.8539 42.2392 57.0631 41.5589 56.0897 41.4971C54.9947 41.4353 54.0213 41.8682 53.3521 42.734C52.3179 43.9708 51.8313 45.4551 51.7704 47.063C51.7096 48.3617 52.5613 49.1657 53.8388 49.1657ZM102.993 44.1564C103.054 41.8682 101.898 41.126 100.134 41.5589C98.0657 42.1155 96.2407 45.8262 96.9707 47.9288C97.214 48.5473 97.579 49.042 98.2482 49.1039C99.0999 49.2276 99.9516 49.1039 100.682 48.5473C102.202 47.3722 102.75 45.7025 102.993 44.1564ZM27.619 43.1669C27.7407 42.3629 26.7673 41.7445 25.6723 41.6208C25.0031 41.5589 24.3948 41.8063 23.8472 42.2392C22.083 43.5998 21.5355 45.5169 21.5964 47.6815C21.5964 48.4236 22.083 48.9183 22.8131 49.1657C23.9081 49.5368 24.8206 49.1039 25.6115 48.3617C26.889 47.1867 27.4365 45.6406 27.619 43.1669ZM67.1008 48.1762C67.3441 48.671 67.405 49.2894 67.9525 49.6605C68.9258 50.2171 70.8726 49.9078 71.6634 49.042C72.2109 48.4236 72.0893 47.7433 71.2984 47.4341C70.5684 47.1249 69.7775 47.0012 69.0475 46.8157C67.2833 46.3209 65.2149 46.4446 64.1199 44.3419C63.8766 45.888 63.2074 47.1867 62.4165 48.6091C64.0591 48.3617 65.5799 48.1762 67.1008 48.1762Z" fill="#0B2461"/>
<path d="M67.5875 26.098C67.2225 27.0257 67.2833 27.8296 67.8308 28.5099C68.4392 29.252 69.2909 29.3757 70.1425 29.1902C70.8117 29.0665 71.4201 28.8191 71.9067 28.3244C72.1501 28.1388 72.3934 27.9533 72.6976 27.9533C74.2793 27.9533 75.8002 27.9533 77.3819 27.9533C77.5035 28.1388 77.3819 28.2007 77.321 28.3244C75.496 30.6744 73.1234 31.9731 70.1425 32.2205C68.6825 32.3442 67.1616 32.3442 65.7016 32.035C63.5115 31.4784 62.5382 29.9323 62.1732 27.8915C62.1123 27.7059 62.1732 27.5204 61.9298 27.3349C61.3215 29.0046 60.4698 32.3442 60.4698 32.3442C60.4698 32.3442 57.7322 32.2205 56.2114 32.4679C58.0364 25.7269 59.8615 19.0478 61.7473 12.3687C63.1465 12.3687 64.5457 12.3687 66.0058 12.3687C65.0932 15.8938 64.1199 19.2952 63.2074 22.7584C63.2682 22.7584 63.329 22.8203 63.3899 22.8203C63.8157 22.2018 64.2416 21.5834 64.7282 21.0268C66.3708 18.9241 68.6217 17.8109 71.1767 17.5017C72.6368 17.3162 74.1576 17.3162 75.6177 17.6873C77.5035 18.182 78.7202 19.2334 79.0244 21.2742C79.0244 21.3979 79.0853 22.6966 79.0853 22.6966C79.0853 22.6966 79.5719 21.5216 79.6328 21.336C80.9711 18.986 82.9178 17.3162 85.0471 15.7701C88.2105 13.4819 91.7389 11.874 95.4498 10.5752C97.8832 9.70943 100.438 8.96731 102.932 8.34887C103.358 8.22518 104.453 7.97781 104.453 7.97781L103.967 10.5134C103.967 10.5134 101.716 11.0081 100.621 11.3174C96.9099 12.4924 93.4423 14.1622 90.3397 16.5122C88.758 17.6873 87.298 19.0478 86.1421 20.7176C83.7695 24.1808 84.1345 27.4586 87.1763 30.3034C89.123 32.1587 91.3739 33.3337 93.9289 33.9521C98.2482 35.0653 102.689 35.3745 107.13 34.9416C111.51 34.5706 115.769 33.6429 120.027 32.406C120.331 32.3442 120.635 32.2205 121.061 32.2824C121.244 35.3745 119.784 37.7246 117.594 39.6418C118.02 40.0128 118.263 39.7654 118.445 39.6418C122.217 37.4772 125.806 35.0653 128.605 31.6639C130.612 29.252 132.255 26.6546 132.863 23.5006C133.897 18.3057 131.768 14.0385 127.266 11.4411C124.468 9.83312 121.487 9.09099 118.263 8.90546C117.837 8.90546 116.925 8.90546 116.925 8.90546L117.776 6.61725C119.845 6.67909 121.852 6.74094 123.86 7.112C126.597 7.66859 129.274 8.41071 131.707 9.89496C133.715 11.1318 135.297 12.7398 136.209 14.9661C137 16.8833 137.243 18.8623 136.878 20.965C136.209 24.7993 134.384 28.077 131.829 30.9218C128.179 35.0035 123.799 38.2194 119.054 40.8786C116.985 41.9918 114.917 43.0432 112.788 43.9708C112.666 44.0327 112.544 44.0327 112.423 44.0945C112.484 43.7853 112.727 43.6616 112.909 43.4761C114.43 42.301 115.525 40.7549 116.194 38.8996C116.62 37.7246 116.803 36.4259 115.829 35.3127C115.525 34.9416 115.221 34.8798 114.734 34.9416C112.423 35.3127 110.111 35.6838 107.738 35.9311C104.818 36.2404 101.837 36.4259 98.8566 36.4259C94.9023 36.4259 91.0089 35.993 87.2371 34.8179C84.317 33.8903 81.6403 32.5297 79.6936 29.9941C78.7811 28.8191 78.4769 27.3967 78.0511 25.9125C74.5835 26.098 71.1159 26.098 67.5875 26.098ZM68.5 23.6243C70.2034 23.6243 71.9676 23.6243 73.7926 23.6243C73.9143 22.6966 74.0968 21.7689 73.3668 21.0268C72.6368 20.2847 71.7242 20.2847 70.7509 20.6558C69.7167 21.0887 68.9867 21.8926 68.5 22.8821C68.3783 23.1295 68.3175 23.315 68.5 23.6243Z" fill="#0B2461"/>
<path d="M103.906 10.6989C108.043 9.58576 112.179 9.02917 116.62 9.09101C113.579 16.8215 110.537 24.4282 107.495 31.9732C104.575 31.9732 101.837 31.9732 98.9782 31.9732C100.621 24.8611 102.202 17.8728 103.906 10.6989Z" fill="#0B2461"/>
<path d="M46.1128 9.77132C45.6869 11.5029 45.2611 13.1109 44.8353 14.7807C42.4627 14.7807 40.0901 14.7807 37.7176 14.7807C37.2917 16.4504 36.3792 19.9137 36.3792 19.9137H40.7593L39.7251 24.6138H35.1625C35.1625 24.6138 33.6417 30.4271 32.8508 33.1482C30.5999 33.1482 28.4707 33.1482 26.0981 33.1482C28.1665 25.2941 30.2349 17.5018 32.2425 9.70947C36.9876 9.77132 41.4893 9.77132 46.1128 9.77132Z" fill="#0B2461"/>
<path d="M48.3637 32.2205C48.972 30.1797 49.5804 28.1388 50.1887 25.9125C48.607 26.5309 47.147 26.8401 45.8086 27.5822C45.2611 27.8915 44.8353 28.3862 44.9569 29.0047C45.0786 29.6849 45.6869 29.8705 46.2953 29.8705C46.3561 29.8705 46.6603 29.8705 46.6603 29.8705C46.6603 29.8705 46.1736 31.7258 45.8695 32.5916C44.4094 32.6534 43.0711 32.7771 41.7327 32.2205C38.7518 30.9837 38.6909 28.0152 41.0635 26.0362C42.5235 24.8611 44.2269 24.3664 45.9911 23.9335C47.2687 23.6243 48.5462 23.315 49.7629 22.8821C50.3712 22.6348 50.8579 22.3255 50.9187 21.5834C50.4929 20.965 49.8846 20.8413 49.2154 20.7794C47.2687 20.6558 45.4436 21.0268 43.4361 21.8308C43.8011 20.4084 44.7744 18.0583 44.7744 18.0583C44.7744 18.0583 45.5653 17.811 45.8695 17.811C48.3028 17.6873 50.7362 17.4399 53.1696 17.7491C53.8388 17.811 54.4472 17.9965 55.1163 18.182C56.4547 18.6149 57.1847 20.161 56.7589 21.4597C55.6639 24.9848 54.7513 28.5099 53.7171 32.1587C51.9529 32.2205 50.1887 32.2205 48.3637 32.2205Z" fill="#0B2461"/>
<path d="M106.278 0C110.902 0 115.464 0 120.149 0C119.236 2.22637 118.385 4.32905 117.533 6.61727C113.274 6.49358 109.016 7.11202 104.636 7.91599C105.062 5.13302 105.853 2.65928 106.278 0Z" fill="#0B2461"/>
</g>
<defs>
<clipPath id="clip0_60_47">
<rect width="137" height="53" fill="white"/>
</clipPath>
</defs>
</svg>
