<svg width="235" height="44" viewBox="0 0 235 44" fill="none" xmlns="http://www.w3.org/2000/svg">
<g clip-path="url(#clip0_11_84)">
<path fill-rule="evenodd" clip-rule="evenodd" d="M0 44V43.5181L9.65035 0.597595H23.3897L13.7393 44H0Z" fill="white"/>
<path fill-rule="evenodd" clip-rule="evenodd" d="M37.947 0.597595H54.3035L48.9057 25.3869L47.4338 22.3386L43.5084 13.1929L37.947 0.597595Z" fill="white"/>
<path fill-rule="evenodd" clip-rule="evenodd" d="M68.37 0.597591C68.37 0.597591 94.3548 -2.07636 100.102 3.88679C101.922 5.77512 102.89 8.45682 102.882 12.3905C103.891 8.56653 104.716 4.56184 105.499 0.517136C110.134 0.517136 114.768 0.517136 119.402 0.517136C116.485 15.1979 113 29.3218 110.079 43.9996C105.39 43.9996 100.702 43.9996 96.0127 43.9996C97.9329 35.6675 99.7127 27.1977 101.574 18.8084C99.4934 22.2052 96.8329 25.2014 92.2509 26.6703C87.7606 28.1103 82.3084 28.0277 76.0581 27.9541C74.6226 33.0705 73.702 38.6929 72.4599 43.9991C67.8257 43.9991 58.5569 43.9991 58.5569 43.9991L68.37 0.597591ZM89.6334 14.9578C90.0943 13.4403 90.1145 11.493 89.1426 10.3047C87.6505 8.48049 83.6966 9.42143 80.3102 9.18178C79.2164 12.2804 78.7317 15.9766 77.8567 19.2903C83.2869 19.8208 88.4549 18.8364 89.6334 14.9578Z" fill="white"/>
<path fill-rule="evenodd" clip-rule="evenodd" d="M33.04 18.9689L43.8351 44H27.6423L33.04 18.9689Z" fill="white"/>
<path d="M125.674 0.555847H128.303L126.473 8.88533H123.844L125.674 0.555847Z" fill="white"/>
<path d="M130.203 0.555847H132.653L134.838 5.16417L135.85 0.555847H138.324L136.493 8.88533H134.02L131.845 4.31186L130.84 8.88533H128.373L130.203 0.555847Z" fill="white"/>
<path d="M138.385 6.13008L140.915 5.97648C140.882 6.37446 140.925 6.67778 141.046 6.88601C141.242 7.22332 141.591 7.39155 142.093 7.39155C142.468 7.39155 142.775 7.30507 143.016 7.13254C143.256 6.96045 143.402 6.76038 143.451 6.53322C143.499 6.31723 143.444 6.12405 143.289 5.95368C143.134 5.7833 142.721 5.62196 142.052 5.47052C140.957 5.21667 140.211 4.87936 139.812 4.45902C139.411 4.03824 139.281 3.50259 139.424 2.8512C139.518 2.42311 139.733 2.01869 140.071 1.63792C140.407 1.25716 140.853 0.958139 141.409 0.740436C141.964 0.522303 142.684 0.413452 143.569 0.413452C144.654 0.413452 145.437 0.611364 145.92 1.00762C146.403 1.40344 146.603 2.03288 146.521 2.89638L144.017 3.03879C144.033 2.66362 143.955 2.39084 143.782 2.22047C143.61 2.05009 143.338 1.9649 142.967 1.9649C142.662 1.9649 142.418 2.02815 142.236 2.15507C142.053 2.28199 141.943 2.43645 141.903 2.61844C141.874 2.75139 141.911 2.87013 142.015 2.9764C142.115 3.08655 142.385 3.18894 142.828 3.28317C143.921 3.52539 144.689 3.77106 145.131 4.01888C145.572 4.26713 145.866 4.57475 146.011 4.94218C146.156 5.30961 146.179 5.72049 146.079 6.17482C145.961 6.70918 145.703 7.20138 145.302 7.65227C144.902 8.10317 144.406 8.44521 143.814 8.67797C143.222 8.91116 142.515 9.02776 141.693 9.02776C140.248 9.02776 139.308 8.75498 138.872 8.20944C138.436 7.66389 138.273 6.97077 138.385 6.13008Z" fill="white"/>
<path d="M148.037 0.555847H156.013L155.561 2.61283H152.885L151.506 8.88533H148.882L150.261 2.61283H147.585L148.037 0.555847Z" fill="white"/>
<path d="M157.304 0.555847H159.934L158.103 8.88533H155.474L157.304 0.555847Z" fill="white"/>
<path d="M161.22 0.555847H169.196L168.744 2.61283H166.068L164.689 8.88533H162.066L163.444 2.61283H160.768L161.22 0.555847Z" fill="white"/>
<path d="M175.908 0.555847H178.526L177.436 5.51869C177.328 6.01089 177.147 6.47555 176.895 6.91224C176.643 7.3498 176.313 7.73186 175.908 8.0597C175.502 8.38711 175.101 8.61686 174.705 8.74938C174.155 8.93524 173.522 9.02775 172.808 9.02775C172.395 9.02775 171.95 8.99935 171.474 8.94256C170.998 8.88534 170.614 8.77304 170.323 8.60439C170.032 8.43616 169.784 8.19652 169.58 7.88631C169.376 7.57611 169.261 7.25644 169.233 6.92687C169.187 6.39681 169.209 5.92742 169.298 5.51869L170.389 0.555847H173.007L171.89 5.63658C171.79 6.09091 171.841 6.44543 172.042 6.701C172.242 6.95656 172.571 7.08434 173.026 7.08434C173.478 7.08434 173.859 6.95828 174.172 6.70702C174.484 6.45533 174.691 6.09823 174.792 5.63658L175.908 0.555847Z" fill="white"/>
<path d="M179.668 0.555847H187.643L187.192 2.61283H184.515L183.137 8.88533H180.513L181.892 2.61283H179.216L179.668 0.555847Z" fill="white"/>
<path d="M187.178 4.7262C187.478 3.3662 188.096 2.30781 189.035 1.55015C189.973 0.792926 191.132 0.413452 192.511 0.413452C193.924 0.413452 194.931 0.785612 195.532 1.53036C196.133 2.27468 196.286 3.31716 195.992 4.65822C195.778 5.63143 195.435 6.42996 194.964 7.05295C194.493 7.67594 193.905 8.16082 193.197 8.50717C192.49 8.85351 191.665 9.0269 190.722 9.0269C189.764 9.0269 189.005 8.87717 188.443 8.57816C187.882 8.27914 187.477 7.80544 187.229 7.15793C186.981 6.51041 186.964 5.69984 187.178 4.7262ZM189.8 4.73782C189.615 5.57851 189.641 6.18257 189.879 6.55C190.117 6.91742 190.51 7.10114 191.058 7.10114C191.622 7.10114 192.098 6.92129 192.486 6.56161C192.874 6.20193 193.171 5.55614 193.375 4.62423C193.547 3.84033 193.512 3.26725 193.269 2.90541C193.026 2.54401 192.628 2.36288 192.076 2.36288C191.547 2.36288 191.082 2.54702 190.681 2.91402C190.28 3.28145 189.986 3.88938 189.8 4.73782Z" fill="white"/>
<path d="M123.03 12.1922H125.48L127.665 16.8005L128.677 12.1922H131.151L129.32 20.5217H126.847L124.672 15.9482L123.667 20.5217H121.2L123.03 12.1922Z" fill="white"/>
<path d="M136.47 19.1466H133.492L132.775 20.5217H130.097L135.118 12.1922H137.98L139.34 20.5217H136.593L136.47 19.1466ZM136.322 17.3456L136.043 14.3516L134.457 17.3456H136.322Z" fill="white"/>
<path d="M146.362 17.1124L148.512 17.7939C148.218 18.4264 147.859 18.9552 147.434 19.379C147.008 19.8032 146.526 20.1237 145.986 20.3393C145.446 20.5552 144.796 20.6632 144.035 20.6632C143.112 20.6632 142.387 20.5316 141.861 20.2687C141.333 20.0058 140.93 19.5429 140.65 18.8803C140.371 18.2177 140.346 17.3702 140.572 16.3367C140.875 14.9586 141.481 13.8998 142.391 13.1598C143.3 12.4198 144.439 12.0493 145.806 12.0493C146.875 12.0493 147.669 12.2619 148.189 12.6861C148.707 13.1103 149.019 13.7617 149.123 14.6403L146.696 15.1458C146.67 14.8924 146.626 14.7065 146.563 14.5895C146.459 14.3924 146.313 14.2406 146.124 14.1347C145.935 14.0289 145.709 13.976 145.446 13.976C144.852 13.976 144.345 14.2105 143.925 14.6794C143.609 15.0279 143.369 15.5743 143.205 16.3195C143.002 17.2428 143.007 17.8757 143.217 18.2177C143.427 18.5602 143.791 18.731 144.309 18.731C144.81 18.731 145.22 18.5929 145.538 18.3167C145.856 18.0409 146.131 17.6391 146.362 17.1124Z" fill="white"/>
<path d="M151.122 12.1922H153.751L151.921 20.5217H149.292L151.122 12.1922Z" fill="white"/>
<path d="M154.387 16.3625C154.686 15.0025 155.305 13.9441 156.243 13.1865C157.182 12.4292 158.34 12.0498 159.719 12.0498C161.132 12.0498 162.139 12.4219 162.74 13.1667C163.341 13.911 163.495 14.9535 163.2 16.2945C162.987 17.2682 162.644 18.0667 162.173 18.6897C161.702 19.3127 161.113 19.7976 160.406 20.1439C159.698 20.4903 158.873 20.6637 157.931 20.6637C156.973 20.6637 156.213 20.5139 155.652 20.2149C155.09 19.9159 154.685 19.4422 154.437 18.7947C154.19 18.1467 154.174 17.3362 154.387 16.3625ZM157.008 16.3741C156.824 17.2148 156.85 17.8189 157.088 18.1863C157.326 18.5537 157.719 18.7375 158.267 18.7375C158.831 18.7375 159.306 18.5576 159.694 18.1979C160.082 17.8383 160.379 17.1925 160.583 16.2606C160.756 15.4767 160.72 14.9036 160.477 14.5417C160.234 14.1803 159.837 13.9992 159.284 13.9992C158.756 13.9992 158.29 14.1833 157.889 14.5503C157.488 14.9178 157.195 15.5257 157.008 16.3741Z" fill="white"/>
<path d="M165.532 12.1922H167.982L170.166 16.8005L171.179 12.1922H173.652L171.822 20.5217H169.349L167.174 15.9482L166.169 20.5217H163.702L165.532 12.1922Z" fill="white"/>
<path d="M178.972 19.1466H175.994L175.277 20.5217H172.599L177.62 12.1922H180.482L181.843 20.5217H179.095L178.972 19.1466ZM178.824 17.3456L178.545 14.3516L176.959 17.3456H178.824Z" fill="white"/>
<path d="M184.507 12.1922H187.13L185.751 18.4707H189.846L189.395 20.5217H182.676L184.507 12.1922Z" fill="white"/>
<path d="M120.491 23.8285H124.389C125.157 23.8285 125.756 23.9309 126.184 24.1353C126.612 24.3401 126.938 24.6335 127.163 25.016C127.388 25.3989 127.514 25.8438 127.541 26.3515C127.569 26.8591 127.52 27.3974 127.395 27.9653C127.2 28.855 126.945 29.5456 126.631 30.0361C126.316 30.527 125.939 30.9378 125.499 31.2691C125.06 31.6008 124.617 31.8211 124.173 31.9313C123.564 32.0831 123.026 32.1584 122.559 32.1584H118.661L120.491 23.8285ZM122.7 25.7151L121.7 30.2658H122.344C122.892 30.2658 123.294 30.2064 123.552 30.0873C123.811 29.9676 124.037 29.7594 124.234 29.4621C124.431 29.1648 124.603 28.6829 124.749 28.0161C124.943 27.1341 124.929 26.5296 124.707 26.2035C124.485 25.8778 124.034 25.7151 123.355 25.7151H122.7Z" fill="white"/>
<path d="M132.865 30.783H129.887L129.17 32.158H126.492L131.513 23.8285H134.375L135.736 32.158H132.988L132.865 30.783ZM132.717 28.9815L132.437 25.9875L130.852 28.9815H132.717Z" fill="white"/>
<path d="M142.344 23.8285H146.705C147.655 23.8285 148.318 24.0505 148.693 24.4932C149.069 24.9364 149.167 25.5671 148.987 26.385C148.803 27.2261 148.4 27.8836 147.781 28.3568C147.161 28.8305 146.322 29.0671 145.264 29.0671H143.828L143.149 32.158H140.514L142.344 23.8285ZM144.199 27.3797H144.842C145.347 27.3797 145.722 27.2933 145.965 27.1212C146.207 26.9486 146.358 26.7279 146.417 26.459C146.474 26.1979 146.434 25.9759 146.297 25.7943C146.16 25.6127 145.846 25.5215 145.355 25.5215H144.608L144.199 27.3797Z" fill="white"/>
<path d="M149.127 32.158L150.957 23.8285H155.33C156.142 23.8285 156.746 23.8965 157.145 24.0329C157.543 24.1693 157.833 24.4223 158.015 24.7918C158.196 25.161 158.228 25.6106 158.112 26.1411C158.011 26.6036 157.823 27.002 157.548 27.3371C157.274 27.6723 156.938 27.9442 156.54 28.1525C156.287 28.2854 155.956 28.3951 155.546 28.4825C155.836 28.5848 156.042 28.6872 156.161 28.7892C156.243 28.8576 156.351 29.0035 156.484 29.2276C156.619 29.4509 156.703 29.6235 156.738 29.7452L157.479 32.1584H154.514L153.67 29.6131C153.566 29.2831 153.454 29.0693 153.336 28.9708C153.176 28.8421 152.975 28.7776 152.736 28.7776H152.505L151.762 32.158H149.127ZM152.851 27.2033H153.957C154.077 27.2033 154.317 27.1655 154.677 27.0893C154.859 27.0553 155.019 26.9684 155.16 26.8282C155.302 26.6879 155.392 26.527 155.432 26.345C155.491 26.0761 155.449 25.87 155.307 25.7255C155.165 25.5818 154.854 25.5099 154.376 25.5099H153.223L152.851 27.2033Z" fill="white"/>
<path d="M158.7 27.9988C158.999 26.6388 159.617 25.5805 160.556 24.8228C161.495 24.0656 162.653 23.6861 164.032 23.6861C165.445 23.6861 166.452 24.0583 167.053 24.803C167.654 25.5473 167.808 26.5898 167.513 27.9309C167.299 28.9045 166.957 29.703 166.486 30.326C166.015 30.949 165.426 31.4335 164.719 31.7802C164.011 32.127 163.186 32.3 162.244 32.3C161.286 32.3 160.527 32.1502 159.965 31.8512C159.403 31.5522 158.999 31.0785 158.75 30.431C158.503 29.7831 158.486 28.9725 158.7 27.9988ZM161.321 28.0105C161.136 28.8512 161.163 29.4552 161.401 29.8226C161.639 30.1901 162.031 30.3738 162.58 30.3738C163.143 30.3738 163.619 30.1939 164.007 29.8343C164.395 29.4746 164.692 28.8288 164.896 27.8969C165.069 27.113 165.034 26.5399 164.791 26.1781C164.547 25.8167 164.15 25.6355 163.598 25.6355C163.069 25.6355 162.603 25.8197 162.202 26.1867C161.802 26.5541 161.508 27.1616 161.321 28.0105Z" fill="white"/>
<path d="M169.816 23.8285H174.177C175.127 23.8285 175.79 24.0505 176.165 24.4932C176.541 24.9364 176.639 25.5671 176.459 26.385C176.275 27.2261 175.872 27.8836 175.253 28.3568C174.633 28.8305 173.794 29.0671 172.737 29.0671H171.3L170.621 32.158H167.986L169.816 23.8285ZM171.671 27.3797H172.314C172.819 27.3797 173.194 27.2933 173.437 27.1212C173.679 26.9486 173.83 26.7279 173.889 26.459C173.946 26.1979 173.906 25.9759 173.769 25.7943C173.632 25.6127 173.318 25.5215 172.827 25.5215H172.08L171.671 27.3797Z" fill="white"/>
<path d="M176.598 32.158L178.429 23.8285H182.801C183.613 23.8285 184.218 23.8965 184.616 24.0329C185.014 24.1693 185.304 24.4223 185.486 24.7918C185.667 25.161 185.7 25.6106 185.583 26.1411C185.482 26.6036 185.294 27.002 185.019 27.3371C184.745 27.6723 184.409 27.9442 184.011 28.1525C183.758 28.2854 183.427 28.3951 183.018 28.4825C183.307 28.5848 183.513 28.6872 183.632 28.7892C183.714 28.8576 183.822 29.0035 183.956 29.2276C184.09 29.4509 184.175 29.6235 184.21 29.7452L184.95 32.1584H181.985L181.142 29.6131C181.037 29.2831 180.925 29.0693 180.807 28.9708C180.647 28.8421 180.447 28.7776 180.207 28.7776H179.976L179.233 32.158H176.598ZM180.323 27.2033H181.429C181.548 27.2033 181.788 27.1655 182.149 27.0893C182.33 27.0553 182.491 26.9684 182.632 26.8282C182.773 26.6879 182.864 26.527 182.904 26.345C182.963 26.0761 182.921 25.87 182.779 25.7255C182.636 25.5818 182.326 25.5099 181.847 25.5099H180.695L180.323 27.2033Z" fill="white"/>
<path d="M187.725 23.8285H190.354L188.524 32.158H185.895L187.725 23.8285Z" fill="white"/>
<path d="M192.231 23.8285H199.263L198.872 25.6067H194.47L194.179 26.9306H198.263L197.889 28.6292H193.805L193.445 30.2714H197.974L197.56 32.1576H190.401L192.231 23.8285Z" fill="white"/>
<path d="M200.838 23.8285H204.736C205.504 23.8285 206.103 23.9309 206.531 24.1353C206.959 24.3401 207.285 24.6335 207.51 25.016C207.735 25.3989 207.861 25.8438 207.888 26.3515C207.916 26.8591 207.867 27.3974 207.742 27.9653C207.547 28.855 207.292 29.5456 206.978 30.0361C206.663 30.527 206.286 30.9378 205.846 31.2691C205.407 31.6008 204.964 31.8211 204.52 31.9313C203.911 32.0831 203.373 32.1584 202.906 32.1584H199.008L200.838 23.8285ZM203.047 25.7151L202.047 30.2658H202.691C203.239 30.2658 203.642 30.2064 203.899 30.0873C204.158 29.9676 204.384 29.7594 204.581 29.4621C204.778 29.1648 204.95 28.6829 205.096 28.0161C205.29 27.1341 205.276 26.5296 205.054 26.2035C204.832 25.8778 204.381 25.7151 203.702 25.7151H203.047Z" fill="white"/>
<path d="M213.212 30.783H210.234L209.518 32.158H206.839L211.861 23.8285H214.723L216.083 32.158H213.335L213.212 30.783ZM213.064 28.9815L212.785 25.9875L211.199 28.9815H213.064Z" fill="white"/>
<path d="M218.782 23.8285H222.68C223.448 23.8285 224.047 23.9309 224.475 24.1353C224.903 24.3401 225.229 24.6335 225.454 25.016C225.679 25.3989 225.805 25.8438 225.833 26.3515C225.86 26.8591 225.811 27.3974 225.686 27.9653C225.491 28.855 225.236 29.5456 224.922 30.0361C224.607 30.527 224.23 30.9378 223.79 31.2691C223.351 31.6008 222.908 31.8211 222.464 31.9313C221.855 32.0831 221.317 32.1584 220.85 32.1584H216.952L218.782 23.8285ZM220.991 25.7151L219.991 30.2658H220.635C221.183 30.2658 221.586 30.2064 221.844 30.0873C222.102 29.9676 222.329 29.7594 222.526 29.4621C222.722 29.1648 222.894 28.6829 223.04 28.0161C223.234 27.1341 223.22 26.5296 222.998 26.2035C222.776 25.8778 222.326 25.7151 221.646 25.7151H220.991Z" fill="white"/>
<path d="M227.968 23.8285H235L234.609 25.6067H230.207L229.916 26.9306H234L233.626 28.6292H229.542L229.182 30.2714H233.711L233.297 32.1576H226.138L227.968 23.8285Z" fill="white"/>
<path d="M118.004 35.4648H120.633L118.802 43.7939H116.173L118.004 35.4648Z" fill="white"/>
<path d="M122.533 35.4648H124.983L127.167 40.0732L128.18 35.4648H130.654L128.823 43.7939H126.35L124.175 39.2209L123.17 43.7939H120.702L122.533 35.4648Z" fill="white"/>
<path d="M132.432 35.4648H136.33C137.098 35.4648 137.696 35.5672 138.124 35.7716C138.552 35.9764 138.879 36.2698 139.103 36.6523C139.328 37.0352 139.455 37.4801 139.482 37.9878C139.51 38.4955 139.461 39.0337 139.336 39.6016C139.14 40.4914 138.886 41.1819 138.571 41.6724C138.256 42.1633 137.88 42.5742 137.44 42.9055C137 43.2372 136.557 43.4575 136.113 43.5676C135.504 43.719 134.966 43.7943 134.499 43.7943H130.601L132.432 35.4648ZM134.64 37.351L133.64 41.9017H134.284C134.832 41.9017 135.235 41.8423 135.493 41.7231C135.751 41.6035 135.978 41.3953 136.175 41.098C136.372 40.8007 136.543 40.3188 136.69 39.652C136.883 38.7695 136.869 38.1655 136.647 37.8393C136.425 37.5137 135.975 37.351 135.296 37.351H134.64Z" fill="white"/>
<path d="M147.149 35.4648H149.767L148.677 40.4277C148.569 40.9199 148.389 41.3845 148.136 41.8212C147.884 42.2588 147.554 42.6409 147.149 42.9687C146.742 43.2961 146.342 43.5263 145.946 43.6584C145.395 43.8442 144.763 43.9367 144.049 43.9367C143.636 43.9367 143.191 43.9088 142.715 43.8516C142.239 43.7943 141.855 43.682 141.564 43.5138C141.273 43.3452 141.025 43.1059 140.821 42.7953C140.617 42.4851 140.501 42.1654 140.473 41.8359C140.428 41.3062 140.45 40.8368 140.539 40.4281L141.63 35.4653H144.248L143.131 40.546C143.031 41.0003 143.082 41.3553 143.283 41.6109C143.483 41.8664 143.811 41.9942 144.267 41.9942C144.718 41.9942 145.1 41.8681 145.413 41.6169C145.725 41.3652 145.932 41.0081 146.033 40.5464L147.149 35.4648Z" fill="white"/>
<path d="M149.822 41.0386L152.353 40.885C152.32 41.283 152.363 41.5863 152.483 41.7946C152.679 42.1319 153.028 42.3001 153.531 42.3001C153.905 42.3001 154.213 42.2136 154.453 42.0411C154.694 41.869 154.839 41.669 154.889 41.4418C154.936 41.2258 154.882 41.0326 154.726 40.8622C154.571 40.6919 154.159 40.5305 153.489 40.3791C152.394 40.1252 151.648 39.7879 151.25 39.3676C150.848 38.9468 150.719 38.4112 150.862 37.7598C150.956 37.3317 151.171 36.9273 151.508 36.5465C151.845 36.1657 152.29 35.8667 152.846 35.6494C153.402 35.4313 154.122 35.3224 155.006 35.3224C156.092 35.3224 156.875 35.5204 157.357 35.9162C157.84 36.312 158.041 36.9419 157.959 37.8054L155.454 37.9474C155.471 37.5722 155.393 37.2998 155.22 37.1295C155.047 36.9591 154.775 36.8739 154.405 36.8739C154.1 36.8739 153.856 36.9371 153.674 37.0641C153.491 37.191 153.38 37.3454 153.34 37.5274C153.311 37.6604 153.349 37.7791 153.453 37.8854C153.553 37.9955 153.823 38.0979 154.266 38.1922C155.359 38.4344 156.126 38.6801 156.568 38.9279C157.01 39.1761 157.303 39.4838 157.449 39.8512C157.594 40.2186 157.617 40.6295 157.517 41.0838C157.399 41.6182 157.14 42.1104 156.74 42.5613C156.34 43.0122 155.843 43.3538 155.252 43.587C154.66 43.8197 153.953 43.9368 153.13 43.9368C151.686 43.9368 150.746 43.664 150.309 43.1184C149.873 42.5729 149.711 41.8793 149.822 41.0386Z" fill="white"/>
<path d="M159.475 35.4648H167.451L166.998 37.5218H164.322L162.944 43.7943H160.32L161.698 37.5218H159.023L159.475 35.4648Z" fill="white"/>
<path d="M166.842 43.7939L168.673 35.4648H173.045C173.857 35.4648 174.462 35.5328 174.86 35.6692C175.258 35.8056 175.548 36.0586 175.729 36.4282C175.911 36.7973 175.943 37.2469 175.827 37.7774C175.726 38.2399 175.538 38.6383 175.263 38.9735C174.989 39.3086 174.652 39.5805 174.255 39.7888C174.002 39.9217 173.671 40.0314 173.261 40.1188C173.551 40.2212 173.756 40.3236 173.876 40.4255C173.958 40.4939 174.066 40.6398 174.2 40.864C174.334 41.0872 174.419 41.2598 174.454 41.3815L175.194 43.7948H172.229L171.386 41.2494C171.281 40.9199 171.169 40.7056 171.052 40.6071C170.891 40.4785 170.691 40.4139 170.451 40.4139H170.22L169.478 43.7943L166.842 43.7939ZM170.566 38.8397H171.672C171.792 38.8397 172.032 38.8018 172.393 38.7256C172.574 38.6917 172.735 38.6048 172.876 38.4645C173.017 38.3242 173.107 38.1633 173.147 37.9813C173.206 37.7124 173.165 37.5063 173.022 37.3618C172.88 37.2181 172.57 37.1462 172.091 37.1462H170.939L170.566 38.8397Z" fill="white"/>
<path d="M177.969 35.4648H180.598L178.768 43.7939H176.138L177.969 35.4648Z" fill="white"/>
<path d="M186.173 42.4193H183.194L182.478 43.7939H179.8L184.821 35.4648H187.683L189.043 43.7939H186.295L186.173 42.4193ZM186.025 40.6179L185.745 37.6238L184.16 40.6179H186.025Z" fill="white"/>
<path d="M191.707 35.4648H194.331L192.951 41.7429H197.046L196.596 43.7939H189.877L191.707 35.4648Z" fill="white"/>
</g>
<defs>
<clipPath id="clip0_11_84">
<rect width="235" height="44" fill="white"/>
</clipPath>
</defs>
</svg>
